+ filenameToUse=/home/horvathandras/vatic/vatic/public/videouploads/DJI_0692_valto_muvelonyom_vaskut_20180608_napos_kalaszos_T4.avi
+ filenameNoDot=DJI_0692_valto_muvelonyom_vaskut_20180608_napos_kalaszos_T4
+ FullUploadPath=/home/horvathandras/vatic/vatic/public/videouploads/DJI_0692_valto_muvelonyom_vaskut_20180608_napos_kalaszos_T4.avi
+ VideoDataDir=/home/horvathandras/vatic/vatic/videos
+ AvailableObjectTypes='PozitívROI NegatívROI Túrás ~Friss ~1-2Hetes ~Régebbi ~Egyéb1 ~Egyéb2 ~Egyéb3 Rágás ~Friss ~1-2Hetes ~Régebbi ~Egyéb1 ~Egyéb2 ~Egyéb3 Törés ~Friss ~1-2Hetes ~Régebbi ~Egyéb1 ~Egyéb2 ~Egyéb3 Taposás ~Friss ~1-2Hetes ~Régebbi ~Egyéb1 ~Egyéb2 ~Egyéb3 EgészségesNövény Egyéb1 Egyéb2 Egyéb3 Egyéb4 Egyéb5 Bizonytalan Művelőút Gktaposás Vetőhiba Széldöntés Jégkár Belvíz Aszály Erózió EgyszikűGyom KétszikűGyom EgyébNövvédelmiPR'
++ dirname /home/horvathandras/vatic/vatic/vatic_publisher.sh
+ cd /home/horvathandras/vatic/vatic
+ touch /home/horvathandras/vatic/vatic/public/videouploads/DJI_0692_valto_muvelonyom_vaskut_20180608_napos_kalaszos_T4.avi
+ chmod 744 /home/horvathandras/vatic/vatic/public/videouploads/DJI_0692_valto_muvelonyom_vaskut_20180608_napos_kalaszos_T4.avi
+ mkdir /home/horvathandras/vatic/vatic/videos/DJI_0692_valto_muvelonyom_vaskut_20180608_napos_kalaszos_T4
+ turkic extract /home/horvathandras/vatic/vatic/public/videouploads/DJI_0692_valto_muvelonyom_vaskut_20180608_napos_kalaszos_T4.avi /home/horvathandras/vatic/vatic/videos/DJI_0692_valto_muvelonyom_vaskut_20180608_napos_kalaszos_T4 --no-resize
ffmpeg version 2.8.14-0ubuntu0.16.04.1 Copyright (c) 2000-2018 the FFmpeg developers
  built with gcc 5.4.0 (Ubuntu 5.4.0-6ubuntu1~16.04.9) 20160609
  configuration: --prefix=/usr --extra-version=0ubuntu0.16.04.1 --build-suffix=-ffmpeg --toolchain=hardened --libdir=/usr/lib/x86_64-linux-gnu --incdir=/usr/include/x86_64-linux-gnu --cc=cc --cxx=g++ --enable-gpl --enable-shared --disable-stripping --disable-decoder=libopenjpeg --disable-decoder=libschroedinger --enable-avresample --enable-avisynth --enable-gnutls --enable-ladspa --enable-libass --enable-libbluray --enable-libbs2b --enable-libcaca --enable-libcdio --enable-libflite --enable-libfontconfig --enable-libfreetype --enable-libfribidi --enable-libgme --enable-libgsm --enable-libmodplug --enable-libmp3lame --enable-libopenjpeg --enable-libopus --enable-libpulse --enable-librtmp --enable-libschroedinger --enable-libshine --enable-libsnappy --enable-libsoxr --enable-libspeex --enable-libssh --enable-libtheora --enable-libtwolame --enable-libvorbis --enable-libvpx --enable-libwavpack --enable-libwebp --enable-libx265 --enable-libxvid --enable-libzvbi --enable-openal --enable-opengl --enable-x11grab --enable-libdc1394 --enable-libiec61883 --enable-libzmq --enable-frei0r --enable-libx264 --enable-libopencv
  libavutil      54. 31.100 / 54. 31.100
  libavcodec     56. 60.100 / 56. 60.100
  libavformat    56. 40.101 / 56. 40.101
  libavdevice    56.  4.100 / 56.  4.100
  libavfilter     5. 40.101 /  5. 40.101
  libavresample   2.  1.  0 /  2.  1.  0
  libswscale      3.  1.101 /  3.  1.101
  libswresample   1.  2.101 /  1.  2.101
  libpostproc    53.  3.100 / 53.  3.100
Input #0, mov,mp4,m4a,3gp,3g2,mj2, from '/home/horvathandras/vatic/vatic/public/videouploads/DJI_0692_valto_muvelonyom_vaskut_20180608_napos_kalaszos_T4.avi':
  Metadata:
    major_brand     : qt  
    minor_version   : 537986816
    compatible_brands: qt  
    creation_time   : 2018-06-08 08:59:04
    location        : +46.067252+18.985179+30.900
    location-{    : +46.067252+18.985179+30.900
    comment         : DE=None, Mode=P, DSW=0001
  Duration: 00:00:12.20, start: 0.000000, bitrate: 102060 kb/s
    Stream #0:0(eng): Video: h264 (High) (avc1 / 0x31637661), yuv420p(tv, bt709), 4096x2160 [SAR 1:1 DAR 256:135], 101756 kb/s, 50 fps, 50 tbr, 50k tbn, 100 tbc (default)
    Metadata:
      creation_time   : 2018-06-08 08:59:04
      handler_name    : DJI.AVC
      encoder         : AVC encoder
    Stream #0:1(eng): Data: none (priv / 0x76697270), 280 kb/s
    Metadata:
      creation_time   : 2018-06-08 08:59:04
      handler_name    : DJI.Meta
Please use -b:a or -b:v, -b is ambiguous
[swscaler @ 0xf37be0] deprecated pixel format used, make sure you did set range correctly
Output #0, image2, to '/tmp/pyvision-ffmpeg-676159196/%d.jpg':
  Metadata:
    major_brand     : qt  
    minor_version   : 537986816
    compatible_brands: qt  
    comment         : DE=None, Mode=P, DSW=0001
    location        : +46.067252+18.985179+30.900
    location-{    : +46.067252+18.985179+30.900
    encoder         : Lavf56.40.101
    Stream #0:0(eng): Video: mjpeg, yuvj420p(pc), 4096x2160 [SAR 1:1 DAR 256:135], q=2-31, 10000 kb/s, 50 fps, 50 tbn, 50 tbc (default)
    Metadata:
      creation_time   : 2018-06-08 08:59:04
      handler_name    : DJI.AVC
      encoder         : Lavc56.60.100 mjpeg
Stream mapping:
  Stream #0:0 -> #0:0 (h264 (native) -> mjpeg (native))
Press [q] to stop, [?] for help
frame=    1 fps=0.0 q=16.6 size=N/A time=00:00:00.02 bitrate=N/A    frame=    5 fps=3.0 q=24.8 size=N/A time=00:00:00.10 bitrate=N/A    frame=    8 fps=3.7 q=24.8 size=N/A time=00:00:00.16 bitrate=N/A    frame=   12 fps=4.4 q=24.8 size=N/A time=00:00:00.24 bitrate=N/A    frame=   15 fps=4.6 q=24.8 size=N/A time=00:00:00.30 bitrate=N/A    frame=   19 fps=5.0 q=24.8 size=N/A time=00:00:00.38 bitrate=N/A    frame=   23 fps=5.2 q=24.8 size=N/A time=00:00:00.46 bitrate=N/A    frame=   27 fps=5.3 q=24.8 size=N/A time=00:00:00.54 bitrate=N/A    frame=   31 fps=5.3 q=24.8 size=N/A time=00:00:00.62 bitrate=N/A    frame=   35 fps=5.4 q=24.8 size=N/A time=00:00:00.70 bitrate=N/A    frame=   39 fps=5.6 q=24.8 size=N/A time=00:00:00.78 bitrate=N/A    frame=   44 fps=5.8 q=24.8 size=N/A time=00:00:00.88 bitrate=N/A    frame=   48 fps=5.9 q=24.8 size=N/A time=00:00:00.96 bitrate=N/A    frame=   52 fps=5.9 q=24.8 size=N/A time=00:00:01.04 bitrate=N/A    frame=   56 fps=6.0 q=24.8 size=N/A time=00:00:01.12 bitrate=N/A    frame=   60 fps=6.0 q=24.8 size=N/A time=00:00:01.20 bitrate=N/A    frame=   64 fps=6.1 q=24.8 size=N/A time=00:00:01.28 bitrate=N/A    frame=   68 fps=6.1 q=24.8 size=N/A time=00:00:01.36 bitrate=N/A    frame=   72 fps=6.1 q=24.8 size=N/A time=00:00:01.44 bitrate=N/A    frame=   76 fps=6.2 q=24.8 size=N/A time=00:00:01.52 bitrate=N/A    frame=   80 fps=6.2 q=24.8 size=N/A time=00:00:01.60 bitrate=N/A    frame=   84 fps=6.3 q=24.8 size=N/A time=00:00:01.68 bitrate=N/A    frame=   88 fps=6.3 q=24.8 size=N/A time=00:00:01.76 bitrate=N/A    frame=   92 fps=6.3 q=24.8 size=N/A time=00:00:01.84 bitrate=N/A    frame=   96 fps=6.3 q=24.8 size=N/A time=00:00:01.92 bitrate=N/A    frame=  100 fps=6.3 q=24.8 size=N/A time=00:00:02.00 bitrate=N/A    frame=  104 fps=6.3 q=24.8 size=N/A time=00:00:02.08 bitrate=N/A    frame=  107 fps=6.3 q=24.8 size=N/A time=00:00:02.14 bitrate=N/A    frame=  111 fps=6.3 q=24.8 size=N/A time=00:00:02.22 bitrate=N/A    frame=  115 fps=6.4 q=24.8 size=N/A time=00:00:02.30 bitrate=N/A    frame=  118 fps=6.3 q=24.8 size=N/A time=00:00:02.36 bitrate=N/A    frame=  122 fps=6.4 q=24.8 size=N/A time=00:00:02.44 bitrate=N/A    frame=  126 fps=6.4 q=24.8 size=N/A time=00:00:02.52 bitrate=N/A    frame=  129 fps=6.4 q=24.8 size=N/A time=00:00:02.58 bitrate=N/A    frame=  133 fps=6.4 q=24.8 size=N/A time=00:00:02.66 bitrate=N/A    frame=  137 fps=6.4 q=24.8 size=N/A time=00:00:02.74 bitrate=N/A    frame=  141 fps=6.4 q=24.8 size=N/A time=00:00:02.82 bitrate=N/A    frame=  146 fps=6.4 q=24.8 size=N/A time=00:00:02.92 bitrate=N/A    frame=  150 fps=6.4 q=24.8 size=N/A time=00:00:03.00 bitrate=N/A    frame=  154 fps=6.4 q=24.8 size=N/A time=00:00:03.08 bitrate=N/A    frame=  158 fps=6.5 q=24.8 size=N/A time=00:00:03.16 bitrate=N/A    frame=  162 fps=6.5 q=24.8 size=N/A time=00:00:03.24 bitrate=N/A    frame=  166 fps=6.5 q=24.8 size=N/A time=00:00:03.32 bitrate=N/A    frame=  170 fps=6.5 q=24.8 size=N/A time=00:00:03.40 bitrate=N/A    frame=  174 fps=6.5 q=24.8 size=N/A time=00:00:03.48 bitrate=N/A    frame=  178 fps=6.5 q=24.8 size=N/A time=00:00:03.56 bitrate=N/A    frame=  182 fps=6.5 q=24.8 size=N/A time=00:00:03.64 bitrate=N/A    frame=  186 fps=6.5 q=24.8 size=N/A time=00:00:03.72 bitrate=N/A    frame=  191 fps=6.6 q=24.8 size=N/A time=00:00:03.82 bitrate=N/A    frame=  195 fps=6.6 q=24.8 size=N/A time=00:00:03.90 bitrate=N/A    frame=  199 fps=6.6 q=24.8 size=N/A time=00:00:03.98 bitrate=N/A    frame=  204 fps=6.6 q=24.8 size=N/A time=00:00:04.08 bitrate=N/A    frame=  208 fps=6.6 q=24.8 size=N/A time=00:00:04.16 bitrate=N/A    frame=  211 fps=6.6 q=24.8 size=N/A time=00:00:04.22 bitrate=N/A    frame=  215 fps=6.6 q=24.8 size=N/A time=00:00:04.30 bitrate=N/A    frame=  219 fps=6.6 q=24.8 size=N/A time=00:00:04.38 bitrate=N/A    frame=  223 fps=6.6 q=24.8 size=N/A time=00:00:04.46 bitrate=N/A    frame=  226 fps=6.6 q=24.8 size=N/A time=00:00:04.52 bitrate=N/A    frame=  230 fps=6.6 q=24.8 size=N/A time=00:00:04.60 bitrate=N/A    frame=  234 fps=6.6 q=24.8 size=N/A time=00:00:04.68 bitrate=N/A    frame=  238 fps=6.6 q=24.8 size=N/A time=00:00:04.76 bitrate=N/A    frame=  242 fps=6.6 q=24.8 size=N/A time=00:00:04.84 bitrate=N/A    frame=  246 fps=6.6 q=24.8 size=N/A time=00:00:04.92 bitrate=N/A    frame=  251 fps=6.6 q=24.8 size=N/A time=00:00:05.02 bitrate=N/A    frame=  255 fps=6.6 q=24.8 size=N/A time=00:00:05.10 bitrate=N/A    frame=  259 fps=6.6 q=24.8 size=N/A time=00:00:05.18 bitrate=N/A    frame=  264 fps=6.6 q=24.8 size=N/A time=00:00:05.28 bitrate=N/A    frame=  268 fps=6.6 q=24.8 size=N/A time=00:00:05.36 bitrate=N/A    frame=  271 fps=6.6 q=24.8 size=N/A time=00:00:05.42 bitrate=N/A    frame=  274 fps=6.6 q=24.8 size=N/A time=00:00:05.48 bitrate=N/A    frame=  278 fps=6.6 q=24.8 size=N/A time=00:00:05.56 bitrate=N/A    frame=  281 fps=6.6 q=24.8 size=N/A time=00:00:05.62 bitrate=N/A    frame=  286 fps=6.6 q=24.8 size=N/A time=00:00:05.72 bitrate=N/A    frame=  291 fps=6.6 q=24.8 size=N/A time=00:00:05.82 bitrate=N/A    frame=  295 fps=6.6 q=24.8 size=N/A time=00:00:05.90 bitrate=N/A    frame=  299 fps=6.6 q=24.8 size=N/A time=00:00:05.98 bitrate=N/A    frame=  303 fps=6.7 q=24.8 size=N/A time=00:00:06.06 bitrate=N/A    frame=  307 fps=6.7 q=24.8 size=N/A time=00:00:06.14 bitrate=N/A    frame=  311 fps=6.7 q=24.8 size=N/A time=00:00:06.22 bitrate=N/A    frame=  315 fps=6.7 q=24.8 size=N/A time=00:00:06.30 bitrate=N/A    frame=  318 fps=6.6 q=24.8 size=N/A time=00:00:06.36 bitrate=N/A    frame=  322 fps=6.7 q=24.8 size=N/A time=00:00:06.44 bitrate=N/A    frame=  326 fps=6.6 q=24.8 size=N/A time=00:00:06.52 bitrate=N/A    frame=  330 fps=6.7 q=24.8 size=N/A time=00:00:06.60 bitrate=N/A    frame=  334 fps=6.7 q=24.8 size=N/A time=00:00:06.68 bitrate=N/A    frame=  337 fps=6.6 q=24.8 size=N/A time=00:00:06.74 bitrate=N/A    frame=  341 fps=6.6 q=24.8 size=N/A time=00:00:06.82 bitrate=N/A    frame=  344 fps=6.6 q=24.8 size=N/A time=00:00:06.88 bitrate=N/A    frame=  348 fps=6.6 q=24.8 size=N/A time=00:00:06.96 bitrate=N/A    frame=  352 fps=6.7 q=24.8 size=N/A time=00:00:07.04 bitrate=N/A    frame=  356 fps=6.7 q=24.8 size=N/A time=00:00:07.12 bitrate=N/A    frame=  360 fps=6.6 q=24.8 size=N/A time=00:00:07.20 bitrate=N/A    frame=  365 fps=6.7 q=24.8 size=N/A time=00:00:07.30 bitrate=N/A    frame=  369 fps=6.7 q=24.8 size=N/A time=00:00:07.38 bitrate=N/A    frame=  373 fps=6.7 q=24.8 size=N/A time=00:00:07.46 bitrate=N/A    frame=  377 fps=6.7 q=24.8 size=N/A time=00:00:07.54 bitrate=N/A    frame=  381 fps=6.7 q=24.8 size=N/A time=00:00:07.62 bitrate=N/A    frame=  384 fps=6.7 q=24.8 size=N/A time=00:00:07.68 bitrate=N/A    frame=  388 fps=6.7 q=24.8 size=N/A time=00:00:07.76 bitrate=N/A    frame=  391 fps=6.7 q=24.8 size=N/A time=00:00:07.82 bitrate=N/A    frame=  395 fps=6.7 q=24.8 size=N/A time=00:00:07.90 bitrate=N/A    frame=  400 fps=6.7 q=24.8 size=N/A time=00:00:08.00 bitrate=N/A    frame=  404 fps=6.7 q=24.8 size=N/A time=00:00:08.08 bitrate=N/A    frame=  407 fps=6.7 q=24.8 size=N/A time=00:00:08.14 bitrate=N/A    frame=  411 fps=6.7 q=24.8 size=N/A time=00:00:08.22 bitrate=N/A    frame=  415 fps=6.7 q=24.8 size=N/A time=00:00:08.30 bitrate=N/A    frame=  419 fps=6.7 q=24.8 size=N/A time=00:00:08.38 bitrate=N/A    frame=  423 fps=6.7 q=24.8 size=N/A time=00:00:08.46 bitrate=N/A    frame=  427 fps=6.7 q=24.8 size=N/A time=00:00:08.54 bitrate=N/A    frame=  431 fps=6.7 q=24.8 size=N/A time=00:00:08.62 bitrate=N/A    frame=  434 fps=6.7 q=24.8 size=N/A time=00:00:08.68 bitrate=N/A    frame=  437 fps=6.7 q=24.8 size=N/A time=00:00:08.74 bitrate=N/A    frame=  441 fps=6.7 q=24.8 size=N/A time=00:00:08.82 bitrate=N/A    frame=  444 fps=6.7 q=24.8 size=N/A time=00:00:08.88 bitrate=N/A    frame=  448 fps=6.7 q=24.8 size=N/A time=00:00:08.96 bitrate=N/A    frame=  452 fps=6.7 q=24.8 size=N/A time=00:00:09.04 bitrate=N/A    frame=  456 fps=6.7 q=24.8 size=N/A time=00:00:09.12 bitrate=N/A    frame=  460 fps=6.7 q=24.8 size=N/A time=00:00:09.20 bitrate=N/A    frame=  465 fps=6.7 q=24.8 size=N/A time=00:00:09.30 bitrate=N/A    frame=  469 fps=6.7 q=24.8 size=N/A time=00:00:09.38 bitrate=N/A    frame=  473 fps=6.7 q=24.8 size=N/A time=00:00:09.46 bitrate=N/A    frame=  476 fps=6.7 q=24.8 size=N/A time=00:00:09.52 bitrate=N/A    frame=  480 fps=6.7 q=24.8 size=N/A time=00:00:09.60 bitrate=N/A    frame=  483 fps=6.7 q=24.8 size=N/A time=00:00:09.66 bitrate=N/A    frame=  487 fps=6.7 q=24.8 size=N/A time=00:00:09.74 bitrate=N/A    frame=  491 fps=6.7 q=24.8 size=N/A time=00:00:09.82 bitrate=N/A    frame=  495 fps=6.7 q=24.8 size=N/A time=00:00:09.90 bitrate=N/A    frame=  499 fps=6.7 q=24.8 size=N/A time=00:00:09.98 bitrate=N/A    frame=  503 fps=6.7 q=24.8 size=N/A time=00:00:10.06 bitrate=N/A    frame=  507 fps=6.7 q=24.8 size=N/A time=00:00:10.14 bitrate=N/A    frame=  510 fps=6.7 q=24.8 size=N/A time=00:00:10.20 bitrate=N/A    frame=  515 fps=6.7 q=24.8 size=N/A time=00:00:10.30 bitrate=N/A    frame=  519 fps=6.7 q=24.8 size=N/A time=00:00:10.38 bitrate=N/A    frame=  523 fps=6.7 q=24.8 size=N/A time=00:00:10.46 bitrate=N/A    frame=  527 fps=6.7 q=24.8 size=N/A time=00:00:10.54 bitrate=N/A    frame=  531 fps=6.7 q=24.8 size=N/A time=00:00:10.62 bitrate=N/A    frame=  535 fps=6.7 q=24.8 size=N/A time=00:00:10.70 bitrate=N/A    frame=  540 fps=6.7 q=24.8 size=N/A time=00:00:10.80 bitrate=N/A    frame=  543 fps=6.7 q=24.8 size=N/A time=00:00:10.86 bitrate=N/A    frame=  547 fps=6.7 q=24.8 size=N/A time=00:00:10.94 bitrate=N/A    frame=  551 fps=6.7 q=24.8 size=N/A time=00:00:11.02 bitrate=N/A    frame=  555 fps=6.7 q=24.8 size=N/A time=00:00:11.10 bitrate=N/A    frame=  559 fps=6.7 q=24.8 size=N/A time=00:00:11.18 bitrate=N/A    frame=  563 fps=6.7 q=24.8 size=N/A time=00:00:11.26 bitrate=N/A    frame=  567 fps=6.7 q=24.8 size=N/A time=00:00:11.34 bitrate=N/A    frame=  571 fps=6.7 q=24.8 size=N/A time=00:00:11.42 bitrate=N/A    frame=  574 fps=6.7 q=24.8 size=N/A time=00:00:11.48 bitrate=N/A    frame=  577 fps=6.7 q=24.8 size=N/A time=00:00:11.54 bitrate=N/A    frame=  580 fps=6.7 q=24.8 size=N/A time=00:00:11.60 bitrate=N/A    frame=  584 fps=6.7 q=24.8 size=N/A time=00:00:11.68 bitrate=N/A    frame=  588 fps=6.7 q=24.8 size=N/A time=00:00:11.76 bitrate=N/A    frame=  591 fps=6.7 q=24.8 size=N/A time=00:00:11.82 bitrate=N/A    frame=  595 fps=6.7 q=24.8 size=N/A time=00:00:11.90 bitrate=N/A    frame=  599 fps=6.7 q=24.8 size=N/A time=00:00:11.98 bitrate=N/A    frame=  603 fps=6.7 q=24.8 size=N/A time=00:00:12.06 bitrate=N/A    frame=  606 fps=6.7 q=24.8 size=N/A time=00:00:12.12 bitrate=N/A    frame=  610 fps=6.7 q=24.8 size=N/A time=00:00:12.20 bitrate=N/A    frame=  610 fps=6.7 q=24.8 Lsize=N/A time=00:00:12.20 bitrate=N/A    
video:490766kB audio:0kB subtitle:0kB other streams:0kB global headers:0kB muxing overhead: unknown
+ turkic load DJI_0692_valto_muvelonyom_vaskut_20180608_napos_kalaszos_T4 /home/horvathandras/vatic/vatic/videos/DJI_0692_valto_muvelonyom_vaskut_20180608_napos_kalaszos_T4 $'Pozit\303\255vROI' $'Negat\303\255vROI' $'T\303\272r\303\241s' '~Friss' '~1-2Hetes' '~Régebbi' '~Egyéb1' '~Egyéb2' '~Egyéb3' $'R\303\241g\303\241s' '~Friss' '~1-2Hetes' '~Régebbi' '~Egyéb1' '~Egyéb2' '~Egyéb3' $'T\303\266r\303\251s' '~Friss' '~1-2Hetes' '~Régebbi' '~Egyéb1' '~Egyéb2' '~Egyéb3' $'Tapos\303\241s' '~Friss' '~1-2Hetes' '~Régebbi' '~Egyéb1' '~Egyéb2' '~Egyéb3' $'Eg\303\251szs\303\251gesN\303\266v\303\251ny' $'Egy\303\251b1' $'Egy\303\251b2' $'Egy\303\251b3' $'Egy\303\251b4' $'Egy\303\251b5' Bizonytalan $'M\305\261vel\305\221\303\272t' $'Gktapos\303\241s' $'Vet\305\221hiba' $'Sz\303\251ld\303\266nt\303\251s' $'J\303\251gk\303\241r' $'Belv\303\255z' $'Asz\303\241ly' $'Er\303\263zi\303\263' $'Egyszik\305\261Gyom' $'K\303\251tszik\305\261Gyom' $'Egy\303\251bN\303\266vv\303\251delmiPR' --offline --title '$filenameNoDot Video' --length 1000 --description 'vatic annotation'
+ turkic publish --offline
+ mkdir /home/horvathandras/vatic/vatic/public/videothumbnails/DJI_0692_valto_muvelonyom_vaskut_20180608_napos_kalaszos_T4
+ cp /home/horvathandras/vatic/vatic/videos/DJI_0692_valto_muvelonyom_vaskut_20180608_napos_kalaszos_T4/0/0/31.jpg /home/horvathandras/vatic/vatic/public/videothumbnails/DJI_0692_valto_muvelonyom_vaskut_20180608_napos_kalaszos_T4/thumb.jpg
